<svg xmlns="http://www.w3.org/2000/svg" xmlns:xlink="http://www.w3.org/1999/xlink" width="2000" zoomAndPan="magnify" viewBox="0 0 1500 1499.999933" height="2000" preserveAspectRatio="xMidYMid meet" version="1.0"><defs><clipPath id="c749242bdc"><path d="M 1351.308594 603.515625 C 1252.898438 603.515625 1075.570312 641.371094 925.902344 678.800781 C 1058.535156 599.882812 1211.644531 501.667969 1281.769531 431.542969 C 1339.863281 373.40625 1339.863281 279.410156 1281.769531 221.316406 C 1223.675781 163.222656 1129.640625 163.222656 1071.546875 221.316406 C 1001.96875 290.859375 903.359375 442.988281 824.054688 575.230469 C 862.105469 425.601562 900.898438 247.882812 900.898438 148.691406 C 900.898438 66.492188 834.367188 0 752.207031 0 C 670.007812 0 603.515625 66.492188 603.515625 148.691406 C 603.515625 247.101562 641.371094 424.46875 678.800781 574.097656 C 599.882812 441.464844 501.667969 288.398438 431.542969 218.230469 C 373.449219 160.136719 279.410156 160.136719 221.316406 218.230469 C 163.222656 276.324219 163.222656 370.359375 221.316406 428.453125 C 290.859375 498.03125 442.988281 596.640625 575.230469 675.945312 C 425.601562 637.933594 247.882812 599.140625 148.691406 599.140625 C 66.492188 599.140625 0 665.632812 0 747.792969 C 0 829.992188 66.492188 896.484375 148.691406 896.484375 C 247.101562 896.484375 424.46875 858.628906 574.097656 821.199219 C 441.464844 900.117188 288.398438 998.332031 218.230469 1068.5 C 160.136719 1126.59375 160.136719 1220.589844 218.230469 1278.683594 C 276.367188 1336.8125 370.359375 1336.8125 428.453125 1278.683594 C 498.03125 1209.140625 596.640625 1057.011719 675.945312 924.769531 C 637.933594 1074.398438 599.140625 1252.15625 599.140625 1351.308594 C 599.140625 1433.507812 665.632812 1500 747.792969 1500 C 829.992188 1500 896.484375 1433.507812 896.484375 1351.308594 C 896.484375 1252.898438 858.664062 1075.570312 821.199219 925.902344 C 900.117188 1058.535156 998.332031 1211.601562 1068.5 1281.769531 C 1126.59375 1339.863281 1220.628906 1339.863281 1278.71875 1281.769531 C 1336.8125 1223.675781 1336.8125 1129.640625 1278.71875 1071.546875 C 1209.140625 1001.96875 1057.011719 903.359375 924.769531 824.054688 C 1074.398438 862.105469 1252.15625 900.898438 1351.308594 900.898438 C 1433.507812 900.898438 1500 834.367188 1500 752.207031 C 1500 670.007812 1433.507812 603.515625 1351.308594 603.515625 Z M 1351.308594 603.515625 " clip-rule="nonzero"/></clipPath><clipPath id="0392ae7b49"><path d="M 0 0 L 1500 0 L 1500 1500 L 0 1500 Z M 0 0 " clip-rule="nonzero"/></clipPath><clipPath id="90b82a3ed1"><path d="M 1351.308594 603.515625 C 1252.898438 603.515625 1075.570312 641.371094 925.902344 678.800781 C 1058.535156 599.882812 1211.644531 501.667969 1281.769531 431.542969 C 1339.863281 373.40625 1339.863281 279.410156 1281.769531 221.316406 C 1223.675781 163.222656 1129.640625 163.222656 1071.546875 221.316406 C 1001.96875 290.859375 903.359375 442.988281 824.054688 575.230469 C 862.105469 425.601562 900.898438 247.882812 900.898438 148.691406 C 900.898438 66.492188 834.367188 0 752.207031 0 C 670.007812 0 603.515625 66.492188 603.515625 148.691406 C 603.515625 247.101562 641.371094 424.46875 678.800781 574.097656 C 599.882812 441.464844 501.667969 288.398438 431.542969 218.230469 C 373.449219 160.136719 279.410156 160.136719 221.316406 218.230469 C 163.222656 276.324219 163.222656 370.359375 221.316406 428.453125 C 290.859375 498.03125 442.988281 596.640625 575.230469 675.945312 C 425.601562 637.933594 247.882812 599.140625 148.691406 599.140625 C 66.492188 599.140625 0 665.632812 0 747.792969 C 0 829.992188 66.492188 896.484375 148.691406 896.484375 C 247.101562 896.484375 424.46875 858.628906 574.097656 821.199219 C 441.464844 900.117188 288.398438 998.332031 218.230469 1068.5 C 160.136719 1126.59375 160.136719 1220.589844 218.230469 1278.683594 C 276.367188 1336.8125 370.359375 1336.8125 428.453125 1278.683594 C 498.03125 1209.140625 596.640625 1057.011719 675.945312 924.769531 C 637.933594 1074.398438 599.140625 1252.15625 599.140625 1351.308594 C 599.140625 1433.507812 665.632812 1500 747.792969 1500 C 829.992188 1500 896.484375 1433.507812 896.484375 1351.308594 C 896.484375 1252.898438 858.664062 1075.570312 821.199219 925.902344 C 900.117188 1058.535156 998.332031 1211.601562 1068.5 1281.769531 C 1126.59375 1339.863281 1220.628906 1339.863281 1278.71875 1281.769531 C 1336.8125 1223.675781 1336.8125 1129.640625 1278.71875 1071.546875 C 1209.140625 1001.96875 1057.011719 903.359375 924.769531 824.054688 C 1074.398438 862.105469 1252.15625 900.898438 1351.308594 900.898438 C 1433.507812 900.898438 1500 834.367188 1500 752.207031 C 1500 670.007812 1433.507812 603.515625 1351.308594 603.515625 Z M 1351.308594 603.515625 " clip-rule="nonzero"/></clipPath><clipPath id="6d14587690"><rect x="0" width="1500" y="0" height="1500"/></clipPath></defs><g clip-path="url(#c749242bdc)"><g transform="matrix(1, 0, 0, 1, 0, 0.000000000000112861)"><g clip-path="url(#6d14587690)"><g clip-path="url(#0392ae7b49)"><g clip-path="url(#90b82a3ed1)"><rect x="-330" width="2160" fill="#cde4eb" height="2159.999904" y="-329.999985" fill-opacity="1"/></g></g></g></g></g></svg>