<svg xmlns="http://www.w3.org/2000/svg" xmlns:xlink="http://www.w3.org/1999/xlink" width="500" zoomAndPan="magnify" viewBox="0 0 375 374.999991" height="500" preserveAspectRatio="xMidYMid meet" version="1.0"><defs><g/><clipPath id="2c67260b15"><path d="M 87 214 L 127.09375 214 L 127.09375 254 L 87 254 Z M 87 214 " clip-rule="nonzero"/></clipPath><clipPath id="80371f8a29"><path d="M 24.34375 112.664062 L 63 112.664062 L 63 254.414062 L 24.34375 254.414062 Z M 24.34375 112.664062 " clip-rule="nonzero"/></clipPath><clipPath id="f83bbbba1b"><rect x="0" width="219" y="0" height="154"/></clipPath><clipPath id="1f42cf2b62"><path d="M 244 81.570312 L 256 81.570312 L 256 93 L 244 93 Z M 244 81.570312 " clip-rule="nonzero"/></clipPath><clipPath id="d0c1b232f2"><path d="M 335 171 L 346.964844 171 L 346.964844 182.070312 L 335 182.070312 Z M 335 171 " clip-rule="nonzero"/></clipPath><clipPath id="ab6c6de96f"><path d="M 29.714844 120 L 339 120 L 339 179 L 29.714844 179 Z M 29.714844 120 " clip-rule="nonzero"/></clipPath><clipPath id="b91fcb3fbd"><path d="M 29.714844 147 L 191 147 L 191 176 L 29.714844 176 Z M 29.714844 147 " clip-rule="nonzero"/></clipPath><clipPath id="a5c7b3876b"><rect x="0" width="65" y="0" height="43"/></clipPath></defs><g clip-path="url(#2c67260b15)"><path fill="#1692a8" d="M 127.164062 233.921875 C 127.164062 234.570312 127.128906 235.214844 127.066406 235.863281 C 127.003906 236.507812 126.910156 237.148438 126.78125 237.785156 C 126.65625 238.421875 126.496094 239.050781 126.308594 239.671875 C 126.121094 240.292969 125.902344 240.902344 125.65625 241.5 C 125.40625 242.101562 125.128906 242.6875 124.824219 243.257812 C 124.515625 243.828125 124.183594 244.386719 123.824219 244.925781 C 123.464844 245.464844 123.078125 245.984375 122.664062 246.488281 C 122.253906 246.988281 121.820312 247.46875 121.359375 247.925781 C 120.902344 248.386719 120.421875 248.820312 119.921875 249.234375 C 119.417969 249.644531 118.898438 250.03125 118.359375 250.390625 C 117.820312 250.75 117.261719 251.085938 116.691406 251.390625 C 116.121094 251.695312 115.535156 251.972656 114.933594 252.222656 C 114.335938 252.46875 113.726562 252.6875 113.105469 252.875 C 112.484375 253.0625 111.855469 253.222656 111.21875 253.347656 C 110.582031 253.476562 109.941406 253.570312 109.296875 253.632812 C 108.648438 253.695312 108.003906 253.730469 107.355469 253.730469 C 106.703125 253.730469 106.058594 253.695312 105.414062 253.632812 C 104.765625 253.570312 104.125 253.476562 103.488281 253.347656 C 102.851562 253.222656 102.222656 253.0625 101.605469 252.875 C 100.984375 252.6875 100.371094 252.46875 99.773438 252.222656 C 99.175781 251.972656 98.589844 251.695312 98.015625 251.390625 C 97.445312 251.085938 96.886719 250.75 96.347656 250.390625 C 95.808594 250.03125 95.289062 249.644531 94.789062 249.234375 C 94.285156 248.820312 93.804688 248.386719 93.347656 247.925781 C 92.886719 247.46875 92.453125 246.988281 92.042969 246.488281 C 91.628906 245.984375 91.242188 245.464844 90.882812 244.925781 C 90.523438 244.386719 90.191406 243.828125 89.882812 243.257812 C 89.578125 242.6875 89.300781 242.101562 89.054688 241.5 C 88.804688 240.902344 88.585938 240.292969 88.398438 239.671875 C 88.210938 239.050781 88.050781 238.421875 87.925781 237.785156 C 87.800781 237.148438 87.703125 236.507812 87.640625 235.863281 C 87.578125 235.214844 87.546875 234.570312 87.546875 233.921875 C 87.546875 233.269531 87.578125 232.625 87.640625 231.980469 C 87.703125 231.332031 87.800781 230.691406 87.925781 230.054688 C 88.050781 229.417969 88.210938 228.789062 88.398438 228.171875 C 88.585938 227.550781 88.804688 226.9375 89.054688 226.339844 C 89.300781 225.742188 89.578125 225.15625 89.882812 224.582031 C 90.191406 224.011719 90.523438 223.453125 90.882812 222.914062 C 91.242188 222.375 91.628906 221.855469 92.042969 221.355469 C 92.453125 220.851562 92.886719 220.371094 93.347656 219.914062 C 93.804688 219.453125 94.285156 219.019531 94.789062 218.609375 C 95.289062 218.195312 95.808594 217.808594 96.347656 217.449219 C 96.886719 217.089844 97.445312 216.757812 98.015625 216.449219 C 98.589844 216.144531 99.175781 215.867188 99.773438 215.621094 C 100.371094 215.371094 100.984375 215.152344 101.605469 214.964844 C 102.222656 214.777344 102.851562 214.617188 103.488281 214.492188 C 104.125 214.367188 104.765625 214.269531 105.414062 214.207031 C 106.058594 214.144531 106.703125 214.113281 107.355469 214.113281 C 108.003906 214.113281 108.648438 214.144531 109.296875 214.207031 C 109.941406 214.269531 110.582031 214.367188 111.21875 214.492188 C 111.855469 214.617188 112.484375 214.777344 113.105469 214.964844 C 113.726562 215.152344 114.335938 215.371094 114.933594 215.621094 C 115.535156 215.867188 116.121094 216.144531 116.691406 216.449219 C 117.261719 216.757812 117.820312 217.089844 118.359375 217.449219 C 118.898438 217.808594 119.417969 218.195312 119.921875 218.609375 C 120.421875 219.019531 120.902344 219.453125 121.359375 219.914062 C 121.820312 220.371094 122.253906 220.851562 122.664062 221.355469 C 123.078125 221.855469 123.464844 222.375 123.824219 222.914062 C 124.183594 223.453125 124.515625 224.011719 124.824219 224.582031 C 125.128906 225.15625 125.40625 225.742188 125.65625 226.339844 C 125.902344 226.9375 126.121094 227.550781 126.308594 228.171875 C 126.496094 228.789062 126.65625 229.417969 126.78125 230.054688 C 126.910156 230.691406 127.003906 231.332031 127.066406 231.980469 C 127.128906 232.625 127.164062 233.269531 127.164062 233.921875 Z M 127.164062 233.921875 " fill-opacity="1" fill-rule="nonzero"/></g><path fill="#1692a8" d="M 88.425781 188.878906 L 88.425781 232.128906 L 87.53125 232.128906 L 87.53125 188.878906 C 87.53125 188.351562 87.503906 187.828125 87.449219 187.300781 C 87.398438 186.777344 87.320312 186.253906 87.214844 185.738281 C 87.113281 185.222656 86.984375 184.710938 86.828125 184.207031 C 86.675781 183.699219 86.496094 183.203125 86.296875 182.71875 C 86.09375 182.230469 85.867188 181.753906 85.617188 181.289062 C 85.367188 180.824219 85.097656 180.371094 84.804688 179.933594 C 84.511719 179.496094 84.195312 179.070312 83.863281 178.664062 C 83.527344 178.257812 83.171875 177.867188 82.800781 177.492188 C 82.425781 177.121094 82.035156 176.765625 81.628906 176.429688 C 81.222656 176.097656 80.796875 175.78125 80.359375 175.488281 C 79.921875 175.195312 79.46875 174.925781 79.003906 174.675781 C 78.539062 174.425781 78.0625 174.199219 77.574219 174 C 77.089844 173.796875 76.59375 173.617188 76.085938 173.464844 C 75.582031 173.308594 75.070312 173.179688 74.554688 173.078125 C 74.039062 172.972656 73.515625 172.894531 72.992188 172.84375 C 72.464844 172.789062 71.941406 172.761719 71.414062 172.761719 L 62.332031 172.761719 L 62.332031 171.867188 L 71.414062 171.867188 C 71.96875 171.867188 72.523438 171.894531 73.078125 171.953125 C 73.632812 172.007812 74.183594 172.089844 74.730469 172.199219 C 75.277344 172.308594 75.816406 172.445312 76.347656 172.605469 C 76.878906 172.769531 77.402344 172.957031 77.917969 173.171875 C 78.433594 173.382812 78.933594 173.621094 79.425781 173.886719 C 79.917969 174.148438 80.394531 174.433594 80.855469 174.746094 C 81.320312 175.054688 81.765625 175.386719 82.195312 175.738281 C 82.628906 176.09375 83.039062 176.464844 83.433594 176.859375 C 83.828125 177.253906 84.199219 177.664062 84.554688 178.097656 C 84.90625 178.527344 85.238281 178.972656 85.546875 179.4375 C 85.859375 179.898438 86.144531 180.375 86.40625 180.867188 C 86.671875 181.359375 86.910156 181.859375 87.121094 182.375 C 87.335938 182.890625 87.523438 183.414062 87.6875 183.945312 C 87.847656 184.476562 87.984375 185.019531 88.09375 185.5625 C 88.203125 186.109375 88.285156 186.660156 88.34375 187.214844 C 88.398438 187.769531 88.425781 188.324219 88.425781 188.878906 Z M 88.425781 188.878906 " fill-opacity="1" fill-rule="nonzero"/><g clip-path="url(#80371f8a29)"><path fill="#1692a8" d="M 62.554688 139.359375 L 62.554688 254.105469 L 53.992188 254.105469 C 53.023438 254.105469 52.054688 254.054688 51.089844 253.960938 C 50.128906 253.863281 49.171875 253.722656 48.21875 253.53125 C 47.269531 253.339844 46.332031 253.105469 45.40625 252.824219 C 44.476562 252.542969 43.566406 252.214844 42.671875 251.84375 C 41.777344 251.472656 40.902344 251.058594 40.046875 250.601562 C 39.195312 250.144531 38.363281 249.648438 37.558594 249.109375 C 36.753906 248.570312 35.976562 247.996094 35.226562 247.378906 C 34.480469 246.765625 33.761719 246.113281 33.078125 245.429688 C 32.390625 244.746094 31.742188 244.027344 31.125 243.28125 C 30.511719 242.53125 29.933594 241.753906 29.398438 240.949219 C 28.859375 240.144531 28.359375 239.3125 27.902344 238.460938 C 27.445312 237.605469 27.03125 236.730469 26.660156 235.835938 C 26.289062 234.941406 25.960938 234.03125 25.679688 233.101562 C 25.398438 232.175781 25.164062 231.238281 24.972656 230.289062 C 24.78125 229.335938 24.640625 228.378906 24.542969 227.417969 C 24.449219 226.453125 24.398438 225.484375 24.398438 224.515625 L 24.398438 112.664062 L 35.859375 112.664062 C 36.734375 112.664062 37.605469 112.707031 38.476562 112.796875 C 39.347656 112.882812 40.210938 113.011719 41.066406 113.183594 C 41.921875 113.351562 42.769531 113.566406 43.605469 113.820312 C 44.441406 114.074219 45.265625 114.371094 46.070312 114.703125 C 46.878906 115.039062 47.667969 115.414062 48.4375 115.824219 C 49.210938 116.238281 49.957031 116.6875 50.683594 117.171875 C 51.410156 117.660156 52.113281 118.179688 52.789062 118.734375 C 53.464844 119.289062 54.109375 119.875 54.726562 120.492188 C 55.347656 121.109375 55.933594 121.757812 56.488281 122.433594 C 57.042969 123.109375 57.5625 123.808594 58.046875 124.535156 C 58.535156 125.261719 58.980469 126.011719 59.394531 126.78125 C 59.808594 127.550781 60.179688 128.339844 60.515625 129.148438 C 60.851562 129.957031 61.144531 130.777344 61.398438 131.613281 C 61.652344 132.449219 61.867188 133.296875 62.039062 134.152344 C 62.210938 135.011719 62.339844 135.875 62.425781 136.742188 C 62.511719 137.613281 62.554688 138.484375 62.554688 139.359375 Z M 62.554688 139.359375 " fill-opacity="1" fill-rule="nonzero"/></g><g transform="matrix(1, 0, 0, 1, 128, 129)"><g clip-path="url(#f83bbbba1b)"><g fill="#1692a8" fill-opacity="1"><g transform="translate(1.526045, 121.991378)"><g><path d="M 25.578125 1.15625 C 21.890625 1.15625 18.472656 0.425781 15.328125 -1.03125 C 12.179688 -2.5 9.644531 -4.613281 7.71875 -7.375 C 5.800781 -10.144531 4.84375 -13.410156 4.84375 -17.171875 L 4.84375 -17.40625 C 4.84375 -21.25 5.664062 -24.378906 7.3125 -26.796875 C 8.96875 -29.210938 11.160156 -31.128906 13.890625 -32.546875 C 16.617188 -33.972656 19.59375 -34.953125 22.8125 -35.484375 C 26.039062 -36.023438 29.191406 -36.296875 32.265625 -36.296875 L 38.375 -36.296875 C 40.0625 -36.296875 41.289062 -36.738281 42.0625 -37.625 C 42.832031 -38.507812 43.21875 -39.566406 43.21875 -40.796875 C 43.21875 -42.796875 42.410156 -44.5625 40.796875 -46.09375 C 39.179688 -47.632812 36.6875 -48.40625 33.3125 -48.40625 C 30.082031 -48.40625 27.367188 -47.691406 25.171875 -46.265625 C 22.984375 -44.847656 21.125 -42.796875 19.59375 -40.109375 L 5.875 -48.296875 C 8.332031 -52.828125 11.90625 -56.394531 16.59375 -59 C 21.28125 -61.613281 27.117188 -62.921875 34.109375 -62.921875 C 39.335938 -62.921875 43.96875 -62.019531 48 -60.21875 C 52.03125 -58.414062 55.179688 -55.671875 57.453125 -51.984375 C 59.722656 -48.296875 60.859375 -43.679688 60.859375 -38.140625 L 60.859375 0 L 44.25 0 L 44.25 -7.609375 L 44.03125 -7.71875 C 41.71875 -4.414062 38.910156 -2.109375 35.609375 -0.796875 C 32.304688 0.503906 28.960938 1.15625 25.578125 1.15625 Z M 30.765625 -11.984375 C 34.765625 -11.984375 37.820312 -13.15625 39.9375 -15.5 C 42.050781 -17.84375 43.109375 -20.628906 43.109375 -23.859375 L 43.109375 -25.234375 L 32.265625 -25.234375 C 29.890625 -25.234375 27.738281 -24.675781 25.8125 -23.5625 C 23.894531 -22.445312 22.9375 -20.660156 22.9375 -18.203125 C 22.9375 -16.054688 23.703125 -14.484375 25.234375 -13.484375 C 26.773438 -12.484375 28.617188 -11.984375 30.765625 -11.984375 Z M 30.765625 -11.984375 "/></g></g></g><g fill="#1692a8" fill-opacity="1"><g transform="translate(70.089153, 121.991378)"><g><path d="M 20.515625 4.71875 C 21.816406 7.332031 23.71875 9.710938 26.21875 11.859375 C 28.71875 14.015625 32.269531 15.09375 36.875 15.09375 C 41.332031 15.09375 45.019531 13.921875 47.9375 11.578125 C 50.863281 9.234375 52.328125 5.601562 52.328125 0.6875 L 52.328125 -8.640625 L 52.09375 -8.640625 C 50.25 -6.265625 48.226562 -4.5 46.03125 -3.34375 C 43.84375 -2.1875 41.710938 -1.414062 39.640625 -1.03125 C 37.566406 -0.65625 35.800781 -0.46875 34.34375 -0.46875 C 28.425781 -0.46875 23.238281 -1.847656 18.78125 -4.609375 C 14.320312 -7.378906 10.84375 -11.085938 8.34375 -15.734375 C 5.851562 -20.378906 4.609375 -25.582031 4.609375 -31.34375 C 4.609375 -35.257812 5.28125 -39.0625 6.625 -42.75 C 7.96875 -46.445312 9.90625 -49.769531 12.4375 -52.71875 C 14.976562 -55.675781 18.035156 -58.039062 21.609375 -59.8125 C 25.179688 -61.582031 29.195312 -62.46875 33.65625 -62.46875 C 34.957031 -62.46875 36.664062 -62.289062 38.78125 -61.9375 C 40.894531 -61.59375 43.160156 -60.828125 45.578125 -59.640625 C 48.003906 -58.453125 50.253906 -56.585938 52.328125 -54.046875 L 52.546875 -54.046875 L 52.546875 -61.546875 L 70.1875 -61.546875 L 70.1875 0.234375 C 70.1875 6.765625 68.722656 12.3125 65.796875 16.875 C 62.878906 21.445312 58.925781 24.90625 53.9375 27.25 C 48.945312 29.59375 43.300781 30.765625 37 30.765625 C 31 30.765625 25.960938 29.957031 21.890625 28.34375 C 17.828125 26.738281 14.523438 24.585938 11.984375 21.890625 C 9.453125 19.203125 7.414062 16.285156 5.875 13.140625 Z M 52.78125 -31.34375 C 52.78125 -35.875 51.335938 -39.523438 48.453125 -42.296875 C 45.578125 -45.066406 42.023438 -46.453125 37.796875 -46.453125 C 33.648438 -46.453125 30.113281 -45.066406 27.1875 -42.296875 C 24.269531 -39.523438 22.8125 -35.875 22.8125 -31.34375 C 22.8125 -26.738281 24.253906 -23.050781 27.140625 -20.28125 C 30.023438 -17.519531 33.578125 -16.140625 37.796875 -16.140625 C 41.953125 -16.140625 45.488281 -17.519531 48.40625 -20.28125 C 51.320312 -23.050781 52.78125 -26.738281 52.78125 -31.34375 Z M 52.78125 -31.34375 "/></g></g></g><g fill="#1692a8" fill-opacity="1"><g transform="translate(148.67745, 121.991378)"><g><path d="M 25.578125 1.15625 C 21.890625 1.15625 18.472656 0.425781 15.328125 -1.03125 C 12.179688 -2.5 9.644531 -4.613281 7.71875 -7.375 C 5.800781 -10.144531 4.84375 -13.410156 4.84375 -17.171875 L 4.84375 -17.40625 C 4.84375 -21.25 5.664062 -24.378906 7.3125 -26.796875 C 8.96875 -29.210938 11.160156 -31.128906 13.890625 -32.546875 C 16.617188 -33.972656 19.59375 -34.953125 22.8125 -35.484375 C 26.039062 -36.023438 29.191406 -36.296875 32.265625 -36.296875 L 38.375 -36.296875 C 40.0625 -36.296875 41.289062 -36.738281 42.0625 -37.625 C 42.832031 -38.507812 43.21875 -39.566406 43.21875 -40.796875 C 43.21875 -42.796875 42.410156 -44.5625 40.796875 -46.09375 C 39.179688 -47.632812 36.6875 -48.40625 33.3125 -48.40625 C 30.082031 -48.40625 27.367188 -47.691406 25.171875 -46.265625 C 22.984375 -44.847656 21.125 -42.796875 19.59375 -40.109375 L 5.875 -48.296875 C 8.332031 -52.828125 11.90625 -56.394531 16.59375 -59 C 21.28125 -61.613281 27.117188 -62.921875 34.109375 -62.921875 C 39.335938 -62.921875 43.96875 -62.019531 48 -60.21875 C 52.03125 -58.414062 55.179688 -55.671875 57.453125 -51.984375 C 59.722656 -48.296875 60.859375 -43.679688 60.859375 -38.140625 L 60.859375 0 L 44.25 0 L 44.25 -7.609375 L 44.03125 -7.71875 C 41.71875 -4.414062 38.910156 -2.109375 35.609375 -0.796875 C 32.304688 0.503906 28.960938 1.15625 25.578125 1.15625 Z M 30.765625 -11.984375 C 34.765625 -11.984375 37.820312 -13.15625 39.9375 -15.5 C 42.050781 -17.84375 43.109375 -20.628906 43.109375 -23.859375 L 43.109375 -25.234375 L 32.265625 -25.234375 C 29.890625 -25.234375 27.738281 -24.675781 25.8125 -23.5625 C 23.894531 -22.445312 22.9375 -20.660156 22.9375 -18.203125 C 22.9375 -16.054688 23.703125 -14.484375 25.234375 -13.484375 C 26.773438 -12.484375 28.617188 -11.984375 30.765625 -11.984375 Z M 30.765625 -11.984375 "/></g></g></g></g></g><g clip-path="url(#1f42cf2b62)"><path fill="#1692a8" d="M 255.53125 87.230469 C 255.53125 87.597656 255.496094 87.960938 255.425781 88.324219 C 255.351562 88.683594 255.246094 89.035156 255.105469 89.375 C 254.964844 89.714844 254.792969 90.039062 254.585938 90.34375 C 254.382812 90.648438 254.152344 90.933594 253.890625 91.195312 C 253.628906 91.453125 253.347656 91.6875 253.039062 91.890625 C 252.734375 92.09375 252.410156 92.269531 252.070312 92.410156 C 251.730469 92.550781 251.378906 92.65625 251.019531 92.726562 C 250.660156 92.800781 250.292969 92.835938 249.925781 92.835938 C 249.558594 92.835938 249.191406 92.800781 248.832031 92.726562 C 248.46875 92.65625 248.121094 92.550781 247.78125 92.410156 C 247.441406 92.269531 247.117188 92.09375 246.8125 91.890625 C 246.503906 91.6875 246.222656 91.453125 245.960938 91.195312 C 245.699219 90.933594 245.46875 90.648438 245.261719 90.34375 C 245.058594 90.039062 244.886719 89.714844 244.746094 89.375 C 244.605469 89.035156 244.5 88.683594 244.425781 88.324219 C 244.355469 87.960938 244.320312 87.597656 244.320312 87.230469 C 244.320312 86.859375 244.355469 86.496094 244.425781 86.136719 C 244.5 85.773438 244.605469 85.421875 244.746094 85.082031 C 244.886719 84.742188 245.058594 84.417969 245.261719 84.113281 C 245.46875 83.808594 245.699219 83.523438 245.960938 83.265625 C 246.222656 83.003906 246.503906 82.769531 246.8125 82.566406 C 247.117188 82.363281 247.441406 82.191406 247.78125 82.046875 C 248.121094 81.90625 248.46875 81.800781 248.832031 81.730469 C 249.191406 81.65625 249.558594 81.621094 249.925781 81.621094 C 250.292969 81.621094 250.660156 81.65625 251.019531 81.730469 C 251.378906 81.800781 251.730469 81.90625 252.070312 82.046875 C 252.410156 82.191406 252.734375 82.363281 253.039062 82.566406 C 253.347656 82.769531 253.628906 83.003906 253.890625 83.265625 C 254.152344 83.523438 254.382812 83.808594 254.585938 84.113281 C 254.792969 84.417969 254.964844 84.742188 255.105469 85.082031 C 255.246094 85.421875 255.351562 85.773438 255.425781 86.136719 C 255.496094 86.496094 255.53125 86.859375 255.53125 87.230469 Z M 255.53125 87.230469 " fill-opacity="1" fill-rule="nonzero"/></g><path fill="#1692a8" d="M 297.480469 134.667969 C 297.480469 135.035156 297.445312 135.402344 297.375 135.761719 C 297.300781 136.125 297.195312 136.472656 297.054688 136.816406 C 296.914062 137.15625 296.742188 137.476562 296.539062 137.785156 C 296.332031 138.089844 296.101562 138.375 295.839844 138.632812 C 295.578125 138.894531 295.296875 139.125 294.992188 139.332031 C 294.683594 139.535156 294.359375 139.707031 294.019531 139.847656 C 293.679688 139.988281 293.332031 140.097656 292.96875 140.167969 C 292.609375 140.238281 292.242188 140.277344 291.875 140.277344 C 291.507812 140.277344 291.140625 140.238281 290.78125 140.167969 C 290.421875 140.097656 290.070312 139.988281 289.730469 139.847656 C 289.390625 139.707031 289.066406 139.535156 288.761719 139.332031 C 288.453125 139.125 288.171875 138.894531 287.910156 138.632812 C 287.648438 138.375 287.417969 138.089844 287.214844 137.785156 C 287.007812 137.476562 286.835938 137.15625 286.695312 136.816406 C 286.554688 136.472656 286.449219 136.125 286.375 135.761719 C 286.304688 135.402344 286.269531 135.035156 286.269531 134.667969 C 286.269531 134.300781 286.304688 133.9375 286.375 133.574219 C 286.449219 133.214844 286.554688 132.863281 286.695312 132.523438 C 286.835938 132.183594 287.007812 131.859375 287.214844 131.554688 C 287.417969 131.246094 287.648438 130.964844 287.910156 130.703125 C 288.171875 130.445312 288.453125 130.210938 288.761719 130.007812 C 289.066406 129.800781 289.390625 129.628906 289.730469 129.488281 C 290.070312 129.347656 290.421875 129.242188 290.78125 129.167969 C 291.140625 129.097656 291.507812 129.0625 291.875 129.0625 C 292.242188 129.0625 292.609375 129.097656 292.96875 129.167969 C 293.332031 129.242188 293.679688 129.347656 294.019531 129.488281 C 294.359375 129.628906 294.683594 129.800781 294.988281 130.007812 C 295.296875 130.210938 295.578125 130.445312 295.839844 130.703125 C 296.101562 130.964844 296.332031 131.246094 296.539062 131.554688 C 296.742188 131.859375 296.914062 132.183594 297.054688 132.523438 C 297.195312 132.863281 297.300781 133.214844 297.375 133.574219 C 297.445312 133.9375 297.480469 134.300781 297.480469 134.667969 Z M 297.480469 134.667969 " fill-opacity="1" fill-rule="nonzero"/><g clip-path="url(#d0c1b232f2)"><path fill="#1692a8" d="M 346.90625 176.621094 C 346.90625 176.988281 346.871094 177.355469 346.800781 177.714844 C 346.726562 178.078125 346.621094 178.425781 346.480469 178.765625 C 346.339844 179.109375 346.167969 179.429688 345.964844 179.738281 C 345.757812 180.042969 345.527344 180.324219 345.265625 180.585938 C 345.003906 180.847656 344.722656 181.078125 344.417969 181.285156 C 344.109375 181.488281 343.785156 181.660156 343.445312 181.800781 C 343.105469 181.941406 342.757812 182.050781 342.394531 182.121094 C 342.035156 182.191406 341.667969 182.230469 341.300781 182.230469 C 340.933594 182.230469 340.566406 182.191406 340.207031 182.121094 C 339.847656 182.050781 339.496094 181.941406 339.15625 181.800781 C 338.816406 181.660156 338.492188 181.488281 338.1875 181.285156 C 337.878906 181.078125 337.597656 180.847656 337.335938 180.585938 C 337.074219 180.324219 336.84375 180.042969 336.640625 179.738281 C 336.433594 179.429688 336.261719 179.109375 336.121094 178.765625 C 335.980469 178.425781 335.875 178.078125 335.800781 177.714844 C 335.730469 177.355469 335.695312 176.988281 335.695312 176.621094 C 335.695312 176.253906 335.730469 175.890625 335.800781 175.527344 C 335.875 175.167969 335.980469 174.816406 336.121094 174.476562 C 336.261719 174.136719 336.433594 173.8125 336.640625 173.507812 C 336.84375 173.199219 337.074219 172.917969 337.335938 172.65625 C 337.597656 172.398438 337.878906 172.164062 338.1875 171.960938 C 338.492188 171.753906 338.816406 171.582031 339.15625 171.441406 C 339.496094 171.300781 339.847656 171.195312 340.207031 171.121094 C 340.566406 171.050781 340.933594 171.015625 341.300781 171.015625 C 341.667969 171.015625 342.035156 171.050781 342.394531 171.121094 C 342.757812 171.195312 343.105469 171.300781 343.445312 171.441406 C 343.785156 171.582031 344.109375 171.753906 344.417969 171.960938 C 344.722656 172.164062 345.003906 172.398438 345.265625 172.65625 C 345.527344 172.917969 345.757812 173.199219 345.964844 173.507812 C 346.167969 173.8125 346.339844 174.136719 346.480469 174.476562 C 346.621094 174.816406 346.726562 175.167969 346.800781 175.527344 C 346.871094 175.890625 346.90625 176.253906 346.90625 176.621094 Z M 346.90625 176.621094 " fill-opacity="1" fill-rule="nonzero"/></g><path fill="#1692a8" d="M 197.59375 173.125 C 197.59375 173.496094 197.554688 173.859375 197.484375 174.21875 C 197.414062 174.582031 197.304688 174.933594 197.164062 175.273438 C 197.023438 175.613281 196.851562 175.933594 196.648438 176.242188 C 196.441406 176.546875 196.210938 176.832031 195.949219 177.089844 C 195.691406 177.351562 195.40625 177.582031 195.101562 177.789062 C 194.792969 177.992188 194.472656 178.164062 194.132812 178.304688 C 193.789062 178.445312 193.441406 178.554688 193.078125 178.625 C 192.71875 178.695312 192.351562 178.734375 191.984375 178.734375 C 191.617188 178.734375 191.253906 178.695312 190.890625 178.625 C 190.53125 178.554688 190.179688 178.445312 189.839844 178.304688 C 189.5 178.164062 189.175781 177.992188 188.871094 177.789062 C 188.5625 177.582031 188.28125 177.351562 188.019531 177.089844 C 187.761719 176.832031 187.527344 176.546875 187.324219 176.242188 C 187.117188 175.933594 186.945312 175.613281 186.804688 175.273438 C 186.664062 174.933594 186.558594 174.582031 186.484375 174.21875 C 186.414062 173.859375 186.378906 173.496094 186.378906 173.125 C 186.378906 172.757812 186.414062 172.394531 186.484375 172.03125 C 186.558594 171.671875 186.664062 171.320312 186.804688 170.980469 C 186.945312 170.640625 187.117188 170.316406 187.324219 170.011719 C 187.527344 169.707031 187.761719 169.421875 188.019531 169.160156 C 188.28125 168.902344 188.5625 168.667969 188.871094 168.464844 C 189.175781 168.261719 189.5 168.085938 189.839844 167.945312 C 190.179688 167.804688 190.53125 167.699219 190.890625 167.628906 C 191.253906 167.554688 191.617188 167.519531 191.984375 167.519531 C 192.351562 167.519531 192.71875 167.554688 193.078125 167.628906 C 193.441406 167.699219 193.789062 167.804688 194.132812 167.945312 C 194.472656 168.085938 194.792969 168.261719 195.101562 168.464844 C 195.40625 168.667969 195.691406 168.902344 195.949219 169.160156 C 196.210938 169.421875 196.441406 169.707031 196.648438 170.011719 C 196.851562 170.316406 197.023438 170.640625 197.164062 170.980469 C 197.304688 171.320312 197.414062 171.671875 197.484375 172.03125 C 197.554688 172.394531 197.59375 172.757812 197.59375 173.125 Z M 197.59375 173.125 " fill-opacity="1" fill-rule="nonzero"/><g clip-path="url(#ab6c6de96f)"><path fill="#1692a8" d="M 338.730469 178.320312 L 246.859375 178.320312 L 236.179688 154.25 L 143.765625 154.25 L 115.730469 123.546875 L 29.714844 123.546875 L 29.714844 120.152344 L 117.230469 120.152344 L 145.261719 150.851562 L 238.386719 150.851562 L 249.066406 174.921875 L 338.730469 174.921875 Z M 338.730469 178.320312 " fill-opacity="1" fill-rule="nonzero"/></g><g clip-path="url(#b91fcb3fbd)"><path fill="#1692a8" d="M 190.039062 175.171875 L 121.160156 175.171875 L 99.5625 150.933594 L 29.714844 150.933594 L 29.714844 147.539062 L 101.085938 147.539062 L 122.683594 171.773438 L 190.039062 171.773438 Z M 190.039062 175.171875 " fill-opacity="1" fill-rule="nonzero"/></g><path fill="#1692a8" d="M 65.804688 123.050781 L 63.40625 120.648438 L 98.523438 85.53125 L 247.773438 85.53125 L 247.773438 88.925781 L 99.929688 88.925781 Z M 65.804688 123.050781 " fill-opacity="1" fill-rule="nonzero"/><path fill="#1692a8" d="M 128.242188 133.03125 L 290.136719 133.03125 L 290.136719 136.425781 L 128.242188 136.425781 Z M 128.242188 133.03125 " fill-opacity="1" fill-rule="nonzero"/><g transform="matrix(1, 0, 0, 1, 279, 253)"><g clip-path="url(#a5c7b3876b)"><g fill="#111010" fill-opacity="1"><g transform="translate(0.250626, 33.985249)"><g><path d="M 7.9375 -24.546875 L 7.9375 0 L 2.859375 0 L 2.859375 -24.546875 Z M 7.9375 -24.546875 "/></g></g></g><g fill="#111010" fill-opacity="1"><g transform="translate(11.062454, 33.985249)"><g><path d="M 7.875 -16.921875 L 7.875 0 L 2.859375 0 L 2.859375 -24.546875 L 8.65625 -24.546875 L 19.3125 -8.53125 L 19.3125 -24.546875 L 24.328125 -24.546875 L 24.328125 0 L 19.15625 0 Z M 7.875 -16.921875 "/></g></g></g><g fill="#111010" fill-opacity="1"><g transform="translate(38.264386, 33.985249)"><g><path d="M 1.34375 -12.25 C 1.34375 -14.03125 1.671875 -15.6875 2.328125 -17.21875 C 2.992188 -18.757812 3.910156 -20.101562 5.078125 -21.25 C 6.242188 -22.394531 7.59375 -23.289062 9.125 -23.9375 C 10.664062 -24.59375 12.316406 -24.921875 14.078125 -24.921875 C 15.679688 -24.921875 17.226562 -24.632812 18.71875 -24.0625 C 20.21875 -23.5 21.535156 -22.679688 22.671875 -21.609375 C 23.816406 -20.535156 24.660156 -19.222656 25.203125 -17.671875 L 20.5625 -15.546875 C 20.039062 -16.898438 19.207031 -17.972656 18.0625 -18.765625 C 16.925781 -19.566406 15.585938 -19.96875 14.046875 -19.96875 C 12.617188 -19.96875 11.347656 -19.617188 10.234375 -18.921875 C 9.117188 -18.234375 8.234375 -17.3125 7.578125 -16.15625 C 6.929688 -15 6.609375 -13.71875 6.609375 -12.3125 C 6.609375 -10.894531 6.925781 -9.597656 7.5625 -8.421875 C 8.207031 -7.253906 9.085938 -6.320312 10.203125 -5.625 C 11.316406 -4.925781 12.597656 -4.578125 14.046875 -4.578125 C 15.585938 -4.578125 16.9375 -5 18.09375 -5.84375 C 19.257812 -6.6875 20.101562 -7.78125 20.625 -9.125 L 25.296875 -6.953125 C 24.734375 -5.410156 23.863281 -4.09375 22.6875 -3 C 21.519531 -1.914062 20.175781 -1.085938 18.65625 -0.515625 C 17.144531 0.0546875 15.585938 0.34375 13.984375 0.34375 C 12.203125 0.34375 10.539062 0.0234375 9 -0.609375 C 7.46875 -1.242188 6.128906 -2.128906 4.984375 -3.265625 C 3.835938 -4.410156 2.941406 -5.75 2.296875 -7.28125 C 1.660156 -8.820312 1.34375 -10.476562 1.34375 -12.25 Z M 1.34375 -12.25 "/></g></g></g></g></g></svg>