<svg xmlns="http://www.w3.org/2000/svg" width="1024" height="1024" version="1.0"><path fill="#fffffe" d="M0 512V0h1024v1024H0zm258 128.8c0-2-1.1-2.6-8-4.5-10.7-3-17.3-6.2-24.5-12-5.4-4.4-6-5.3-6.3-9.1l-.3-4.2h4.1c2.6 0 5.3.8 7 2 5.4 3.9 17.6 9 25 10.6 5.4 1.1 11.2 1.5 20.5 1.2 11.9-.4 13.3-.6 17-3 2.3-1.4 5.6-4.3 7.4-6.4l3.4-3.8-.7-13.1c-.7-12.9-.6-13.2 1.8-16.8 2.3-3.4 2.5-4.3 1.9-11.5-.5-7.4-.5-7.9 2.3-11.1l2.8-3.4-1.8-4.6c-2.8-6.9-3.2-13.8-1-16.2.9-1 2.2-1.9 2.9-1.9s2-.9 3-2 2.3-2 2.8-2c1.9 0 11.7-9.2 11.7-10.9 0-1-4.3-7.8-9.5-15.2s-12.2-17.9-15.7-23.4l-6.3-10-.1-18.5c-.1-16.5-.4-19.5-2.7-28.1-8.7-32.8-30-56.1-60.2-66-6.2-2-9.6-2.3-28.3-2.7l-21.3-.4.4 109.9.3 109.8 2.3 8c6.3 22.2 17.3 37.5 35.3 49.2 8.1 5.2 14 7.9 23.3 10.3 9.6 2.6 11.5 2.5 11.5-.2m90-3.3V635h-60v5h60zm161 0V635H358v5h151zm71.6.9c1.4-.9 3.6-3.6 4.9-5.9 2.5-4.1 2.5-4.4 2.5-30.3V576h-5.9l-.3 27.5c-.3 24.8-.5 27.6-2.1 29.2s-4.6 1.9-30 2.3l-28.2.5-.3 2.3-.3 2.2h28.6c24.8 0 28.9-.2 31.1-1.6m-191.9-55.6c1.7-1.8 3.3-4 3.5-4.8 1.2-3.5-4.4-10-8.5-10-1 0-3.3 1.5-5 3.2l-3.2 3.3-27.7.3-27.8.4v4.8h56.2l3.5 3c1.8 1.7 3.9 3 4.6 3s2.7-1.5 4.4-3.2M588 548.4v-14.5l-3.2.3-3.2.3.1 7.5c0 4.1.1 10.5.2 14.3l.1 6.7h6zM422.4 557c2-2.2 3.6-4.3 3.6-4.6 0-1.5-3.3-6.5-5.2-7.8-3.3-2.3-5.6-2-9 1.4l-3 3h-19.7c-18.5 0-19.9-.1-21.6-2-1-1.1-2.4-2-3-2-.7 0-2.4.9-3.8 2-2.3 1.8-4 2-19.4 2-9.2 0-17.4.4-18.2.9s-1.1 1.6-.8 2.5c.6 1.4 3 1.6 18.3 1.6 16.1 0 17.8.2 20.1 2 3 2.4 4.1 2.5 7.9.6 2-1 8.9-1.6 22-2.1 17-.6 19.2-.5 19.7.9.6 1.5 6.3 5.6 7.8 5.6.4 0 2.3-1.8 4.3-4m40.4-28c4.5-2.7 5.8-6 4.2-10-2.7-6.5-8.4-7.8-13.2-3l-3 3h-69l-11.2-10.9c-6.1-5.9-13-12.5-15.3-14.5-2.3-2.1-4.4-5-4.8-6.4-.4-1.5-1.6-3.7-2.7-4.9-2-2.2-2.9-2.3-16-2.3-12.7 0-13.9.2-13.6 1.8.3 1.5 1.7 1.7 10.2 2 9.7.3 9.8.3 13.1 3.7 2.2 2.4 4.1 3.5 6.1 3.5 2.4 0 5.7 2.9 19.6 16.8l16.8 16.7 33.8.3c25.7.2 33.9.6 34.7 1.5 1.1 1.4 5.6 4.7 6.5 4.7.3 0 2-.9 3.8-2M588 490v-31h-2.9c-2.8 0-3 .2-3.3 4.8-.2 2.6-.2 16.5 0 31l.3 26.2h5.9zm-150.1 11.9c4-3.9 3.9-6.3-.3-10.5s-5.9-4.2-9.8-.4l-3 3h-34.7l-14.9-19.7c-8.2-10.9-17.9-24.1-21.7-29.3-3.7-5.2-8.1-11-9.8-12.7l-3.1-3.3H309v5h32.7l10.5 13.8c5.7 7.5 14.6 19.5 19.8 26.6 5.1 7 11.5 15.5 14.2 18.7l4.9 5.9h33.7l3 3c3.9 3.8 6.3 3.8 10.1-.1m60-27.4c4-4.6 3.9-6.9-.4-11.2-3.9-3.9-6.1-3.8-10.6.3l-2.5 2.4h-37.6c-31.9 0-37.7-.2-38.8-1.5-.7-.8-2.7-1.7-4.5-2.1-1.9-.3-3.6-1.2-3.9-1.9-.7-1.8-39-52.7-40.8-54.2-1.1-1-7.5-1.1-27.1-.6-24.1.6-25.7.7-25.7 2.5 0 1.7 1.4 1.8 24.8 1.8 17.6 0 25.4.4 27.1 1.3 1.4.6 10.7 12 20.7 25.2 17.8 23.3 18.3 24.1 18.3 28.8.1 5.9 1.3 8.2 5.1 10.2 2.7 1.4 3 1.3 5.8-1l3-2.5h73.4l3.5 3c4.4 3.9 6.4 3.8 10.2-.5M769.4 452c4.5-5 4.7-8.6.8-12.8-4.4-4.7-7.5-5.1-12.2-1.3l-3.9 3.1H598.3c-85.7 0-156.3-.4-156.9-.8s-5-5.6-9.8-11.5c-6.8-8.6-8.6-11.6-8.6-14.1 0-1.8.5-3.7 1.2-4.4.9-.9 14.6-1.2 55.7-1.2h54.5l3.1 2.9c4.9 4.7 6.7 4.7 11.4.3 4.6-4.4 5-6.3 2.1-11-3.7-6-9.8-6.7-14.4-1.7l-2.3 2.5-61.9-.1h-61.9l-7.8-9.8c-4.2-5.3-9.2-11.4-11.1-13.4l-3.4-3.7H318v-3.2c0-2.9 2.5-5.8 23.7-27l23.8-23.8h226.7l2 2.5c1.1 1.4 3.3 3.2 5 4.1 2.9 1.5 3.2 1.5 5.7-.4 1.4-1 3.4-3.3 4.4-5.1 1.8-3 1.8-3.2 0-6.7-3.5-6.8-9.6-8.1-14.6-3.1l-2.2 2.2-113 .3-113 .2-30 30-30 29.9-9 .3c-9 .3-9 .3-9.3 3.1l-.3 2.7h100.9l3.3 3.8c1.9 2 10.5 12.7 19.1 23.7s19 24.1 23 29l7.4 9 155.7.3 155.7.2 1.7 2.6c1.9 3 7 6.4 9.4 6.4.9 0 3.3-1.8 5.3-4m-181.6-45.7c-.3-20.7-.4-22-2.5-24.9-4.4-6.1-6.1-6.4-36.7-6.4H521v6h28.8c21.1 0 29.1.3 30 1.2.8.8 1.2 6.1 1.2 17.4 0 8.8.3 18.9.6 22.3.7 5.9.8 6.1 3.6 6.1h2.9zm114.4 1c5.4-5.8 5.5-8.4.9-13.7-3.6-4.1-9.2-3.8-13 .8-1.2 1.4-6.5 1.6-44 1.6-44.4 0-45.1.1-45.1 4.2 0 1.7 2.3 1.8 43.6 1.8h43.5l2.6 3.1c2.5 2.9 5.4 4.7 7.9 4.8.5.1 2.2-1.1 3.6-2.6M509 378v-3H408v6h101z"/><g fill="#1692a8" stroke="#1692a8"><path d="M243.5 644c-9.3-2.4-15.2-5.1-23.3-10.3-18-11.7-29-27-35.3-49.2l-2.3-8-.3-112.8-.4-112.9 24.3.4c22 .4 25 .7 31.3 2.7 30.2 9.9 51.5 33.2 60.2 66 2.3 8.5 2.6 11.8 2.8 28.3l.2 18.6 4.8 7.9c2.7 4.3 6.9 10.7 9.5 14.3s7.7 10.9 11.4 16.3c8.6 12.6 8.6 14.2.9 21.4-3.1 2.9-6.1 5.3-6.7 5.3-.5 0-1.8.7-2.8 1.7-1 .9-2.8 2.1-4 2.7-4 2.1-4.3 3.8-1.4 11 3.1 7.7 2.9 10.3-1.1 15-2.2 2.6-2.4 3.5-1.7 7 1.4 7 .9 10.9-1.7 14.7-2.5 3.6-2.5 4-2.1 17.1l.4 13.4-3.3 3.8c-6 6.9-9.9 8.7-21.1 9.5-11.6.9-26.7-.1-34.6-2.4-5.3-1.6-15.6-6.5-21.4-10.2-3.4-2.1-4.8-1-2.2 1.8 4.6 5.1 15 11.4 24.3 14.6 5.3 1.8 10.4 3.3 11.4 3.3 1.4 0 1.7.9 1.7 5.5v5.5l-5.2-.1c-2.9 0-8.4-.8-12.3-1.9zM518.2 637.8l.3-5.3 28.2-.5c25.4-.4 28.4-.7 30-2.3s1.8-4.4 2.1-29.2l.3-27.5H591v58.3l-2.5 4.2c-4.4 7.7-3.5 7.5-39 7.5h-31.6z"/><path d="m376.7 586-3.5-3H317v-10.8l27.8-.4 27.7-.3 3.2-3.3c2.7-2.7 3.8-3.2 8-3.2 5.6 0 8.6 1.7 10.9 6.2 2.4 4.6 1.3 10.3-2.7 14.4-4.5 4.6-10.3 4.8-15.2.4zM411.2 562c-1.8-1.1-3.5-2.7-3.8-3.5-.6-1.3-3-1.5-18.1-.9-14.5.6-17.6.5-18.4-.7-.5-.8-.9-4.1-.9-7.4 0-4.6.3-5.6 1.2-4.7.8.8 6.2 1.2 17.9 1.2h16.7l3-3c2.6-2.5 3.8-3 7.9-3 7.6 0 12.3 4.7 12.3 12.4 0 5.3-5.9 11.6-10.9 11.6-2 0-5.1-.9-6.9-2zM453 532.3c-1.4-.9-2.9-2.3-3.5-3-.8-.9-9-1.3-34.8-1.5l-33.7-.3-15.5-15.5c-8.5-8.5-15.5-16.3-15.5-17.3 0-1.5.7-1.8 4.3-1.5 3.2.2 4.4.8 5.2 2.6.7 1.5 1.8 2.2 3.8 2.2 2.3 0 4.9 1.9 12.2 9l9.3 9h63l3-2.9c8-8 20.5-2.6 20.5 8.9 0 4.7-1.7 7.6-5.6 10s-9.4 2.6-12.7.3z"/><path d="M383.2 496.1c-2.7-3.2-9.1-11.7-14.2-18.7-5.2-7.1-14.1-19.1-19.8-26.6L338.7 437H306v-11h37.6l3.1 3.3c1.7 1.7 6.1 7.5 9.8 12.7 3.8 5.2 13.5 18.4 21.7 29.3l14.9 19.7H423v11h-34.9z"/><path stroke="null" d="M316.828 484c.8.7 1.5 1.6 1.5 2.1z"/><path d="m484.6 478-3.4-3.1-34.5.3-34.5.3-.6-4.4c-.3-2.4-.6-5.3-.6-6.5v-2.1l35.2.3 35.1.3 2.8-2.7c2-1.9 4.2-2.8 7.6-3.1 4.2-.4 5.3-.1 8 2.1 6.2 5.2 6.5 12.7.6 18.8-2.2 2.3-3.5 2.8-7.5 2.8-3.8 0-5.4-.6-8.2-3zM393.9 465.3c0-2.5-36-49.5-39-51-1.7-.9-9.5-1.3-27.1-1.3H303v-9.7l28.6-.7c22.2-.5 28.9-.4 30.1.6 1.6 1.3 31.4 40.5 38.3 50.4 2.2 3.2 4 6.5 4 7.5 0 1.9-5.7 5.9-8.4 5.9-.9 0-1.6-.8-1.7-1.7z"/><path d="M756.5 457.1c-1.7-1-3.9-3-4.8-4.5L750 450l-155.7-.2-155.7-.3-7.4-9c-4-4.9-14.4-18-23-29s-17.2-21.7-19.1-23.7l-3.3-3.8H284.9l.3-5.7.3-5.8 9-.3 9-.3 30-29.9 30-30 113.4-.2c90.7-.2 113.5-.6 113.9-1.6.7-2.2 5.9-4.2 11-4.2 3.8 0 5.5.5 7.6 2.5 11.2 10.4 0 28.9-13.4 22-1.5-.8-3.7-2.6-4.8-4l-2-2.5H368.5l-24 24-24 24h70.7l3.4 3.7c1.9 2 6.9 8.1 11.1 13.4l7.8 9.8h59.3c52.4.1 59.3-.1 59.9-1.4 1.5-4.2 13.6-6.1 18.1-2.9 3.3 2.3 5.2 6.7 5.2 12 0 4.2-.4 5.1-4.2 8.7-3.9 3.7-4.4 3.9-9 3.5-3.8-.4-5.7-1.2-8.2-3.7l-3.2-3.1h-51.6c-42.6 0-51.8.2-52.7 1.4-.9 1.1.6 3.6 7.5 12.2 4.8 6 9.2 11.2 9.8 11.6s70 .8 154.1.7h153l3.5-2.9c5.6-4.9 15.3-3.7 19.3 2.3 3.9 6 3 12.7-2.6 18.5-2.6 2.7-3.8 3.2-7.6 3.2-2.7 0-5.9-.8-7.6-1.9z"/><path d="M692.4 412c-1.1-.4-3.2-2.2-4.7-3.9l-2.6-3.1H598v-4.8c0-2.6.5-5.3 1.2-6 .9-.9 12-1.2 43.9-1.2 37.5 0 42.8-.2 44-1.6 3.4-4.1 11-5.6 15.9-3.1 5.6 2.8 8.7 11.6 5.9 17-2.7 5.1-6.1 7.7-10.3 7.6-2.3 0-5-.4-6.2-.9z"/></g><g fill="#1692a8"><path d="M285.147 637.5V632h66v11h-66zM255.647 636c-4.6-.7-12.1-3.8-11.3-4.5.3-.3 4.3.5 8.8 1.8 8.4 2.5 9.7 3.8 2.5 2.7M357.947 559c-2.3-1.8-4.4-2-20.4-2.2l-17.9-.3-.3-4.4c-.2-2.8.1-4.7 1-5.2.7-.5 8.9-.9 18.1-.9 15.4 0 17.1-.2 19.4-2 5.8-4.5 15.9-1 15.7 5.5-.1 5.6-.3 5.5 15.9 5.5 19.3 0 18.7 1.8-.9 2.7-8.6.3-15 1.1-16.8 1.9-4.3 2.1-10.9 1.8-13.8-.6M382.875 527.3c-1.1-.2-9.4-7.8-18.4-16.8-13.7-13.7-17-16.5-19.4-16.5-2 0-3.9-1.1-6.1-3.5-3.3-3.4-3.4-3.4-13.1-3.7l-9.9-.3-.3-4.7-.3-4.8h16.9c16.2 0 16.9.1 18.9 2.3 1.1 1.2 2.4 3.3 2.8 4.6.4 1.4 7.1 8.8 14.9 16.4 7.7 7.7 13.2 13.5 12.1 12.9s-3.3-2.5-5-4.2c-2.8-2.9-10-6.8-11.7-6.2-.5.1-.8-.3-.8-.8 0-1.6-2-1.2-2.7.6-.4 1.1 2.7 4.9 10.3 12.5l10.9 10.9h33.3c22 0 33.1.3 32.7 1-.6 1-60.3 1.3-65.1.3m-26.4-29.8c-.7-.8-1.6-1.5-2.1-1.5s-.6.7-.3 1.5c.4.8 1.3 1.5 2.1 1.5 1.3 0 1.3-.3.3-1.5M578.947 495c-.1-15.9-.1-31.2 0-34l.4-5h11.8v68h-11.8zM428.447 507.5c-1.8-.7-3.8-2.3-4.5-3.4-1.2-1.9-2.3-2.1-12.8-2.3-7.4-.1-9-.3-4.5-.5 3.9-.2 8.5-.5 10.3-.9 3-.5 3.3-.8 3-3.7l-.3-3.2-10-.3c-14.7-.4-14.5-2.2.2-2.2h12.1l3-3c6-5.9 16.8-2.9 19.1 5.4 1.3 4.9.3 8.3-3.7 12.2-3.8 3.7-6.7 4.2-11.9 1.9M484.947 477.9l-3.1-3-34 .1h-34l-2.9 2.5c-3.4 2.9-7.5 3.2-11.8 1-3.8-2-5-4.3-5-9.9 0-4 .3-4.6 3.5-6.6 2.2-1.4 3.5-3 3.5-4.3.1-2 .2-2 1.3-.6.7.9 2.7 2 4.4 2.3 1.7.4 3.7 1.4 4.4 2.2.9 1.2 6.9 1.4 36.1 1.4 23 0 34.7.3 34.3 1-.4.6-12.9 1-34.2 1-30.1 0-33.5.2-32.9 1.6.3.9.6 2.7.6 4v2.4h67l1.5 2.4c1.7 2.6 5.2 4.3 10 4.9 2.3.3 1.9.4-1.3.6-3.6.1-4.9-.4-7.4-3M306.147 431.5V426h37.6l3 3.3 2.9 3.2-3.1-2.7c-3-2.8-3.2-2.8-16-2.7-7.1 0-14.9.4-17.4.7-4.3.7-4.5.8-4.8 4.4-.3 3.1 0 3.7 2 4.1 1.7.3 1.5.5-.9.6l-3.3.1zM696.647 388c-3-.8-3-.8.8-.9 2 0 3.7.4 3.7.9 0 1.1-.2 1.1-4.5 0"/></g><g fill="#0b6f92"><path d="M355 637.5V632h157v11H355zM578.7 555.3c-.3-6-.5-13.7-.4-17.3l.2-6.5 6.3-.3 6.2-.3V566h-11.7zM405 378v-6h107v12H405z"/></g><path fill="#096487" d="M579 409.7c0-17.6-.3-21.6-1.6-23.5-1.5-2.2-1.7-2.2-30.5-2.2H518v-12h30.6c33.8 0 35.3.2 39.7 6.4 2.1 3 2.2 4.1 2.5 27.9l.3 24.7H579z"/><ellipse cx="344.745" cy="485.429" fill="#1692ab" rx="10.605" ry="10.908"/><ellipse cx="364.44" cy="551.788" fill="#1692ab" rx="11.211" ry="10.908"/><circle cx="403.226" cy="467.854" r="12.12" fill="#1692ab"/><circle cx="493.523" cy="469.369" r="13.636" fill="#1692ab"/><ellipse cx="544.278" cy="405.282" fill="#1692ab" rx="13.787" ry="14.696"/></svg>